<?xml version="1.0" standalone="no"?>
<!DOCTYPE svg PUBLIC "-//W3C//DTD SVG 20010904//EN"
 "http://www.w3.org/TR/2001/REC-SVG-20010904/DTD/svg10.dtd">
<svg version="1.0" xmlns="http://www.w3.org/2000/svg"
 width="300.000000pt" height="300.000000pt" viewBox="0 0 300.000000 300.000000"
 preserveAspectRatio="xMidYMid meet">
<metadata>
Created by potrace 1.10, written by Peter Selinger 2001-2011
</metadata>
<g transform="translate(0.000000,300.000000) scale(0.100000,-0.100000)"
fill="#000000" stroke="none">
<path d="M1551 2700 c-11 -6 -7 -12 15 -23 46 -24 74 -55 67 -74 -4 -11 -3
-14 6 -9 8 5 10 18 7 32 -5 18 -2 24 10 24 10 0 14 -6 11 -14 -4 -11 2 -12 30
-5 20 4 40 14 44 21 7 10 9 9 9 -4 0 -9 -12 -26 -26 -37 -23 -18 -25 -23 -13
-38 12 -15 12 -16 -6 -9 -15 5 -17 4 -8 -5 14 -14 36 -2 29 18 -6 16 26 56 49
59 8 1 20 -5 27 -14 12 -16 11 -16 -7 -2 -18 14 -19 14 -7 -2 8 -10 20 -14 30
-11 9 3 14 3 10 -1 -4 -5 5 -19 19 -32 23 -21 24 -25 9 -39 -31 -31 -43 -70
-45 -144 -1 -17 -4 -21 -13 -13 -18 14 -165 45 -211 44 -29 -1 -37 3 -33 13 8
21 -10 27 -24 10 -7 -8 -18 -15 -24 -15 -6 0 -3 5 7 11 27 16 10 29 -38 29
-46 0 -67 -13 -38 -24 9 -4 20 -2 23 5 6 8 9 8 14 0 4 -6 2 -11 -4 -11 -6 0
-8 -4 -5 -10 3 -5 -3 -10 -14 -10 -12 0 -21 5 -21 11 0 5 -5 7 -10 4 -6 -4 -8
-10 -5 -15 3 -4 -6 -3 -19 3 -13 7 -22 15 -19 20 3 4 11 3 19 -4 11 -9 14 -8
14 4 0 11 -9 15 -29 15 -22 -1 -28 -5 -23 -17 3 -9 10 -19 16 -23 6 -4 -7 -8
-29 -8 -22 0 -49 -3 -61 -6 -14 -4 -21 -1 -21 9 0 9 13 18 30 21 17 3 28 8 25
11 -3 3 -19 2 -36 -1 -26 -5 -32 -11 -32 -31 0 -15 -5 -23 -12 -20 -7 2 -12
11 -10 21 2 9 -4 16 -13 16 -8 0 -15 5 -15 10 0 6 4 10 9 10 5 0 3 14 -6 30
-8 17 -19 28 -24 25 -13 -8 2 27 19 44 10 11 19 11 37 3 17 -8 26 -8 31 -1 4
6 14 3 27 -8 l21 -18 -20 27 c-18 26 -43 40 -28 16 5 -8 2 -9 -10 -5 -10 4
-22 7 -27 7 -5 0 -9 9 -9 20 0 11 -4 20 -10 20 -11 0 -9 28 3 47 9 15 88 8 99
-9 5 -9 8 -9 8 -2 0 23 48 22 74 -3 14 -12 32 -23 41 -23 9 0 22 -13 28 -30 6
-16 15 -30 20 -30 4 0 6 -3 3 -8 -2 -4 11 -7 30 -6 35 2 43 -11 24 -34 -5 -7
0 -4 11 7 12 10 22 30 22 45 1 14 6 26 10 26 5 0 5 5 2 10 -3 6 3 10 14 10 21
0 28 14 12 24 -5 3 -14 -1 -21 -9 -7 -8 -19 -15 -26 -15 -8 0 -14 -11 -14 -26
0 -20 -4 -25 -16 -20 -9 3 -22 6 -30 6 -8 0 -14 8 -14 18 0 24 -31 52 -58 52
-11 0 -23 8 -27 19 -3 10 -19 24 -35 31 -25 10 -34 10 -52 -2 -19 -13 -25 -13
-49 1 -26 15 -30 14 -56 -5 -29 -22 -36 -58 -19 -96 6 -13 4 -18 -7 -18 -9 0
-20 -8 -26 -17 -9 -16 -11 -16 -28 -1 -10 8 -28 19 -40 22 -27 9 -88 -18 -111
-49 -16 -21 -16 -21 -42 34 -27 57 -55 89 -67 77 -4 -3 3 -16 15 -29 18 -19
52 -85 52 -102 0 -2 -23 4 -52 16 -28 11 -62 18 -74 15 -32 -8 -81 -69 -94
-116 l-11 -40 -29 15 c-34 18 -93 20 -123 4 -69 -37 -131 -112 -123 -150 4
-19 -1 -33 -18 -48 -16 -15 -26 -19 -31 -12 -3 6 -11 9 -16 6 -8 -6 -7 -35 6
-118 3 -17 1 -26 -5 -22 -6 3 -10 13 -10 21 0 21 -43 84 -57 84 -26 0 -20 -20
32 -98 30 -45 55 -84 55 -88 0 -3 -9 -13 -21 -22 -29 -24 -34 -84 -14 -180 10
-53 13 -87 7 -98 -6 -11 -11 -13 -16 -5 -10 16 -26 14 -26 -4 0 -8 9 -19 19
-25 16 -8 22 -6 30 7 9 16 12 16 21 3 15 -22 12 -27 -14 -34 -13 -3 -32 -9
-42 -13 -14 -5 -16 -2 -12 14 4 15 -1 25 -18 34 -32 17 -41 6 -20 -25 23 -35
20 -52 -13 -94 -37 -46 -56 -109 -47 -156 11 -58 21 -49 18 17 -3 73 20 122
81 171 36 29 45 31 117 31 60 0 82 -4 97 -17 11 -10 22 -18 25 -18 3 0 8 26
11 58 7 67 48 196 86 267 l26 50 3 -130 c2 -83 -1 -131 -8 -133 -26 -9 -5 -17
45 -17 30 0 55 3 55 8 0 4 -6 7 -12 7 -9 0 -13 22 -13 75 l0 75 68 0 67 0 0
-75 c0 -60 -3 -75 -15 -75 -8 0 -15 -3 -15 -7 0 -9 108 -8 117 1 4 3 -1 6 -10
6 -15 0 -17 15 -17 130 0 111 2 130 16 130 8 0 13 4 10 9 -3 4 -30 8 -61 8
-30 0 -55 -4 -55 -8 0 -5 7 -9 15 -9 11 0 15 -12 15 -45 l0 -45 -67 0 -68 0 0
45 c0 29 4 45 13 45 6 0 12 5 12 11 0 7 -16 8 -46 3 -44 -6 -46 -6 -35 14 26
48 132 170 184 212 31 25 56 50 57 57 0 7 -18 31 -39 53 -35 36 -44 41 -78 38
-32 -3 -42 2 -66 29 -31 35 -30 62 4 119 30 49 65 59 123 34 63 -27 77 -25
111 10 41 42 76 52 116 32 38 -20 78 -88 86 -150 5 -39 6 -40 32 -30 55 21
176 38 271 38 212 0 400 -64 579 -195 33 -24 63 -40 66 -35 3 5 -14 23 -37 40
-24 17 -50 36 -59 43 -25 20 -72 47 -106 63 -36 15 -49 59 -15 47 14 -5 13 -3
-3 10 -28 23 -33 21 -27 -8 4 -24 3 -25 -23 -15 -15 6 -31 8 -36 4 -5 -3 -9
26 -9 66 0 67 2 74 31 100 29 28 29 30 15 57 -28 53 -88 92 -147 96 -24 1 -49
9 -56 17 -11 13 -12 13 -13 -3 0 -29 -27 -30 -62 -3 -22 16 -38 22 -47 16z
m159 -50 c0 -5 -7 -10 -16 -10 -8 0 -12 5 -9 10 3 6 10 10 16 10 5 0 9 -4 9
-10z m-1084 -272 c16 -19 16 -20 1 -9 -15 12 -17 12 -11 -3 7 -18 20 -21 29
-6 3 6 13 10 22 10 14 0 14 -2 -2 -20 -17 -18 -16 -20 16 -49 18 -17 35 -28
38 -26 3 3 23 -12 45 -32 22 -21 34 -29 26 -19 -28 37 -61 66 -72 63 -7 -1
-12 5 -13 13 0 8 -6 16 -12 16 -23 3 -24 4 -13 24 15 29 26 25 69 -21 33 -36
40 -40 59 -30 17 9 27 8 51 -7 29 -18 30 -19 13 -37 -16 -18 -16 -18 1 -5 16
12 20 12 27 -1 7 -10 1 -20 -18 -36 -15 -12 -33 -22 -39 -23 -15 0 -13 21 2
32 7 5 6 8 -1 8 -5 0 -26 -17 -45 -37 -18 -20 -26 -31 -17 -24 10 7 25 11 33
7 11 -4 14 -2 9 6 -4 7 -3 8 5 4 8 -6 2 -18 -22 -41 -46 -45 -100 -114 -117
-150 -8 -16 -20 -37 -27 -46 -7 -9 -26 -42 -42 -75 -17 -32 -30 -52 -30 -43
-2 56 -77 179 -108 179 -7 0 -13 5 -13 10 0 7 6 7 20 0 11 -6 20 -7 20 -2 0 6
-9 12 -20 15 -12 3 -18 11 -15 19 9 25 22 139 14 131 -6 -6 -29 -142 -29 -172
0 -11 -50 -5 -63 8 -12 12 -18 81 -9 96 3 5 5 23 3 39 -2 18 1 26 8 22 6 -4
11 -16 11 -27 0 -29 19 -23 26 9 11 50 14 54 34 49 10 -3 24 1 30 8 8 9 4 11
-15 7 -23 -4 -25 -1 -25 32 0 47 56 111 111 127 21 7 36 16 33 20 -10 17 3 9
22 -13z m-199 -220 c-3 -8 -6 -5 -6 6 -1 11 2 17 5 13 3 -3 4 -12 1 -19z m87
-197 c23 -26 54 -108 62 -168 4 -34 1 -64 -11 -98 -9 -27 -17 -61 -18 -76 -2
-22 -5 -25 -19 -18 -21 11 -21 10 -8 43 5 14 6 26 1 26 -5 0 -11 -14 -15 -31
-4 -23 -10 -30 -22 -25 -9 3 -28 6 -44 6 -24 0 -29 5 -38 43 -23 91 -29 124
-31 187 -1 35 -5 69 -8 74 -4 5 -1 6 5 2 6 -4 18 6 27 24 14 26 21 30 59 30
29 0 48 -6 60 -19z"/>
<path d="M599 2313 c-13 -16 -12 -17 4 -4 9 7 17 15 17 17 0 8 -8 3 -21 -13z"/>
<path d="M610 2295 c-20 -21 -21 -25 -6 -25 9 0 15 4 11 9 -3 6 3 14 12 20 10
5 15 12 12 15 -3 3 -16 -5 -29 -19z"/>
<path d="M539 2253 c-13 -16 -12 -17 4 -4 9 7 17 15 17 17 0 8 -8 3 -21 -13z"/>
<path d="M422 2085 c0 -16 2 -22 5 -12 2 9 2 23 0 30 -3 6 -5 -1 -5 -18z"/>
<path d="M651 2044 c0 -11 3 -14 6 -6 3 7 2 16 -1 19 -3 4 -6 -2 -5 -13z"/>
<path d="M679 2043 c-13 -16 -12 -17 4 -4 9 7 17 15 17 17 0 8 -8 3 -21 -13z"/>
<path d="M570 2020 c-6 -11 -7 -20 -2 -20 6 0 12 9 15 20 3 11 3 20 1 20 -2 0
-8 -9 -14 -20z"/>
<path d="M536 1754 c-4 -14 -5 -29 -2 -31 3 -3 8 7 12 21 3 15 4 29 1 32 -2 3
-8 -7 -11 -22z"/>
<path d="M521 1694 c0 -11 3 -14 6 -6 3 7 2 16 -1 19 -3 4 -6 -2 -5 -13z"/>
<path d="M965 2675 c-14 -13 -25 -36 -25 -51 0 -25 2 -26 33 -20 36 7 71 39
82 74 6 20 3 22 -30 22 -25 0 -43 -8 -60 -25z m66 -2 c12 -15 12 -16 -3 -11
-10 4 -19 1 -22 -8 -3 -8 -13 -14 -22 -14 -14 0 -13 4 7 24 13 13 25 24 25 25
1 1 8 -7 15 -16z"/>
<path d="M1310 2620 c0 -5 5 -10 11 -10 5 0 7 5 4 10 -3 6 -8 10 -11 10 -2 0
-4 -4 -4 -10z"/>
<path d="M2020 2585 c-13 -40 -11 -39 -45 -23 -31 14 -75 -3 -75 -29 0 -14 3
-13 23 5 26 24 46 30 28 8 -9 -11 -3 -14 35 -19 52 -5 117 11 107 27 -4 6 12
-4 36 -23 24 -19 48 -47 53 -63 12 -33 28 -37 28 -7 0 12 -20 40 -47 66 -46
45 -58 48 -106 28 -16 -7 -18 -4 -12 29 9 47 -9 48 -25 1z"/>
<path d="M1640 2561 c0 -5 -14 -23 -31 -40 -17 -17 -26 -31 -20 -31 12 0 38
25 51 51 10 18 12 18 38 3 l27 -16 -24 21 c-25 22 -41 27 -41 12z"/>
<path d="M1748 2553 c6 -2 18 -2 25 0 6 3 1 5 -13 5 -14 0 -19 -2 -12 -5z"/>
<path d="M1745 2530 l-40 -7 37 -2 c20 0 40 4 43 9 3 6 5 9 3 9 -2 -1 -21 -5
-43 -9z"/>
<path d="M1388 2513 c7 -3 16 -2 19 1 4 3 -2 6 -13 5 -11 0 -14 -3 -6 -6z"/>
<path d="M1538 2483 c6 -2 18 -2 25 0 6 3 1 5 -13 5 -14 0 -19 -2 -12 -5z"/>
<path d="M1584 2458 c-4 -6 -3 -8 4 -4 5 3 12 1 14 -6 3 -8 6 -9 11 -1 4 6 0
13 -8 17 -8 3 -17 0 -21 -6z"/>
<path d="M1635 2450 c-3 -6 1 -7 9 -4 18 7 21 14 7 14 -6 0 -13 -4 -16 -10z"/>
<path d="M2310 2452 c0 -5 9 -17 19 -26 26 -24 35 -47 81 -235 30 -119 38
-166 29 -171 -7 -5 -9 -19 -4 -39 5 -25 3 -31 -10 -31 -9 0 -13 5 -9 11 5 8
-4 10 -30 7 -20 -2 -36 0 -36 5 0 5 -31 75 -69 156 -78 164 -101 227 -101 274
l0 31 -20 -20 c-33 -33 -36 -85 -9 -192 22 -87 30 -105 84 -174 33 -42 73
-100 88 -127 l28 -51 -33 -1 c-21 0 -27 -3 -17 -7 14 -6 12 -15 -14 -70 l-29
-63 -35 62 c-27 48 -32 64 -21 70 8 5 -11 8 -47 8 -33 -1 -53 -3 -44 -6 8 -2
37 -48 64 -103 l49 -99 -18 -38 c-18 -37 -19 -37 -27 -15 -11 30 -53 27 -57
-4 -4 -27 22 -48 51 -40 19 4 38 35 92 151 38 80 74 145 81 145 12 0 42 -76
69 -175 9 -33 19 -114 22 -181 6 -128 -3 -209 -38 -328 -18 -61 -19 -70 -6
-84 14 -13 14 -17 0 -38 -8 -13 -23 -24 -32 -24 -11 0 -38 -31 -70 -80 -28
-44 -81 -110 -116 -147 -36 -37 -67 -73 -69 -79 -5 -13 -68 -48 -213 -118 -70
-34 -98 -54 -115 -81 -19 -29 -27 -34 -48 -29 -64 15 -142 24 -220 24 -228 1
-408 61 -586 196 l-86 64 -129 0 -129 0 6 -48 c17 -137 69 -247 160 -331 84
-79 143 -101 268 -101 75 0 187 19 204 34 1 2 -5 18 -15 36 -14 29 -14 36 -2
59 32 56 147 100 191 72 10 -6 61 -11 122 -11 115 0 166 -10 106 -21 l-35 -6
42 -2 c36 -1 41 2 36 16 -5 15 -3 16 8 6 7 -7 26 -13 41 -13 18 0 28 -5 28
-15 0 -8 4 -15 9 -15 5 0 7 9 4 19 -4 15 6 23 49 40 29 12 41 19 26 16 -57
-11 -22 25 57 60 65 29 69 29 59 13 -4 -7 -3 -8 5 -4 6 4 9 12 6 17 -4 5 -1
10 4 10 22 3 27 5 70 37 25 18 51 31 59 30 21 -4 55 -53 49 -69 -4 -10 -8 -7
-12 8 -4 11 -17 23 -29 25 -23 5 -22 4 6 -39 33 -48 71 -79 76 -63 2 6 -4 18
-14 25 -21 16 -4 20 24 6 26 -13 186 -51 216 -51 31 0 76 21 95 44 8 9 24 16
38 16 19 0 28 9 44 45 11 25 23 67 26 95 5 46 4 51 -28 83 -25 25 -34 44 -36
72 -1 21 -14 58 -30 84 -27 43 -36 49 -103 68 -9 3 -11 7 -4 11 11 7 34 45 34
56 0 3 -6 3 -14 0 -17 -7 -25 22 -15 51 4 11 11 29 15 40 10 28 9 24 18 85 11
73 20 90 34 63 8 -14 8 -31 2 -54 -6 -19 -10 -45 -9 -59 0 -14 7 3 14 36 7 34
12 75 11 92 -1 18 2 33 8 35 6 2 6 9 0 19 -8 15 -11 14 -21 -8 -6 -13 -7 -24
-2 -24 5 0 9 -7 9 -17 0 -15 -2 -14 -20 2 -15 14 -17 22 -9 37 6 12 9 54 6
104 -3 46 -4 84 -4 84 1 1 20 3 42 6 60 9 58 18 -3 11 -29 -3 -51 -3 -48 1 11
19 -54 239 -77 257 -6 6 -13 19 -15 30 -2 11 -10 30 -18 42 -19 30 -18 30 15
29 17 -1 27 -6 24 -13 -3 -7 14 -13 49 -17 77 -9 139 -3 134 11 -6 14 20 7 44
-11 8 -7 26 -17 40 -24 14 -7 30 -24 36 -37 10 -21 9 -24 -9 -27 -28 -4 -45
-34 -29 -50 10 -10 17 -10 32 0 28 17 35 15 19 -5 -9 -11 -14 -40 -14 -75 l0
-58 -47 0 c-39 0 -48 3 -49 18 0 9 -7 -3 -14 -28 -8 -24 -12 -46 -10 -48 2 -2
6 5 9 16 7 21 42 32 81 25 56 -11 139 -132 104 -153 -7 -5 -21 -4 -31 1 -12 6
-18 6 -18 0 0 -5 9 -13 21 -16 15 -5 19 -12 15 -28 -3 -12 -6 -32 -6 -45 0
-13 -14 -37 -31 -54 -17 -17 -32 -44 -34 -60 -2 -16 -9 -36 -16 -44 -10 -12
-9 -18 6 -32 12 -11 15 -12 8 -2 -20 27 6 55 54 58 33 3 44 0 52 -16 12 -23 5
-52 -13 -52 -7 0 -33 -20 -57 -45 -35 -35 -44 -52 -44 -79 -1 -19 3 -32 7 -30
5 3 5 17 2 30 -9 35 69 118 103 109 49 -12 39 84 -11 107 -20 9 -30 8 -51 -6
-36 -24 -32 -1 9 44 23 26 35 51 40 83 4 27 13 48 23 51 32 13 -4 115 -56 159
l-29 24 11 101 c10 90 9 106 -6 137 -10 22 -30 42 -50 51 -17 8 -43 22 -57 29
-33 19 -78 19 -97 -1 -15 -14 -17 -13 -30 16 -7 18 -13 37 -13 44 1 6 7 -4 16
-23 30 -70 25 -17 -15 151 -56 231 -67 263 -102 293 -31 25 -49 32 -49 17z
m-140 -101 c0 -22 53 -152 81 -200 15 -25 16 -31 5 -22 -10 8 -16 9 -16 3 0
-6 6 -15 13 -19 14 -9 67 -105 67 -123 0 -15 -86 96 -118 153 -12 22 -20 42
-17 45 3 3 -2 13 -10 23 -20 21 -34 159 -16 159 6 0 11 -8 11 -19z m300 -401
c0 -5 -5 -10 -11 -10 -5 0 -7 5 -4 10 3 6 8 10 11 10 2 0 4 -4 4 -10z m212
-152 c-15 -15 -26 -4 -18 18 5 13 9 15 18 6 9 -9 9 -15 0 -24z m-243 -798 c12
0 47 -33 59 -56 6 -12 12 -45 13 -73 1 -27 6 -48 11 -45 14 9 9 -9 -9 -29 -18
-19 -17 -19 4 -6 20 12 25 11 38 -2 19 -19 22 -107 6 -147 -12 -28 -92 -74
-121 -69 -23 4 -41 17 -35 26 2 5 -6 18 -19 30 -16 15 -26 19 -31 12 -4 -7 -1
-10 7 -9 7 2 12 -2 11 -8 -1 -6 9 -22 22 -34 33 -31 31 -40 -7 -40 -36 0 -122
23 -114 30 2 3 -9 6 -25 7 -79 4 -79 5 -99 46 -11 22 -17 44 -14 48 3 5 0 9
-5 9 -23 0 -9 22 57 92 77 84 131 151 151 190 13 26 48 40 79 31 8 -1 17 -3
21 -3z m-1689 -242 c0 -5 9 -8 20 -8 11 0 20 5 20 10 0 23 35 6 103 -51 48
-41 107 -78 177 -111 58 -27 112 -53 121 -58 9 -4 38 -12 65 -16 l49 -7 -33
-14 c-18 -7 -38 -10 -44 -7 -7 4 -8 3 -4 -4 3 -6 -3 -16 -14 -22 -13 -7 -22
-25 -26 -51 -6 -38 -11 -43 -58 -65 -77 -36 -190 -34 -271 4 -111 53 -198 167
-230 303 -26 112 -26 111 55 107 38 -2 70 -6 70 -10z m430 -413 c-7 -8 -17
-15 -22 -15 -6 0 -5 7 2 15 7 8 17 15 22 15 6 0 5 -7 -2 -15z"/>
<path d="M2191 2177 c2 -1 13 -9 24 -17 19 -14 19 -14 6 3 -7 9 -18 17 -24 17
-6 0 -8 -1 -6 -3z"/>
<path d="M2246 794 c-5 -13 -9 -14 -20 -5 -20 16 -25 1 -11 -27 8 -15 15 -20
19 -13 4 6 4 11 0 11 -4 0 1 9 11 20 10 11 16 23 13 25 -3 3 -8 -2 -12 -11z"/>
<path d="M2419 733 l-24 -28 28 24 c15 14 27 26 27 28 0 8 -8 1 -31 -24z"/>
<path d="M2290 720 c0 -5 -3 -9 -7 -8 -5 2 -19 -5 -33 -16 -14 -10 -20 -16
-15 -14 6 2 25 10 43 17 30 12 44 31 22 31 -5 0 -10 -4 -10 -10z"/>
<path d="M2289 649 c-49 -32 -48 -36 4 -14 19 8 36 13 38 11 2 -2 12 4 21 13
31 30 -13 23 -63 -10z"/>
<path d="M2328 604 c-16 -8 -28 -17 -28 -19 0 -10 16 -4 40 15 30 23 25 25
-12 4z"/>
<path d="M806 724 c-4 -11 -1 -14 11 -12 9 2 18 9 21 16 6 18 -25 15 -32 -4z"/>
<path d="M875 670 c10 -11 20 -20 23 -20 3 0 -3 9 -13 20 -10 11 -20 20 -23
20 -3 0 3 -9 13 -20z"/>
<path d="M770 654 c0 -17 22 -14 28 4 2 7 -3 12 -12 12 -9 0 -16 -7 -16 -16z"/>
<path d="M847 653 c-4 -3 -7 -13 -7 -21 0 -12 3 -12 15 -2 8 7 15 16 15 21 0
11 -14 12 -23 2z"/>
<path d="M935 625 c17 -13 34 -24 39 -25 6 0 -5 11 -24 25 -44 32 -54 32 -15
0z"/>
<path d="M898 614 c-5 -4 -8 -16 -8 -28 0 -14 3 -17 11 -9 6 6 9 19 7 28 -1 9
-6 13 -10 9z"/>
<path d="M1026 591 c-4 -6 -3 -19 3 -28 9 -17 10 -17 17 0 8 21 -10 45 -20 28z"/>
<path d="M837 576 c-6 -16 2 -28 14 -20 12 7 11 34 0 34 -5 0 -11 -6 -14 -14z"/>
<path d="M958 584 c-5 -4 -8 -16 -8 -28 0 -14 3 -17 11 -9 6 6 9 19 7 28 -1 9
-6 13 -10 9z"/>
<path d="M1090 546 c0 -9 7 -16 16 -16 9 0 14 5 12 12 -6 18 -28 21 -28 4z"/>
<path d="M913 535 c-3 -9 -3 -18 0 -21 9 -9 27 6 27 22 0 19 -19 18 -27 -1z"/>
<path d="M1000 510 c0 -11 5 -20 10 -20 6 0 10 9 10 20 0 11 -4 20 -10 20 -5
0 -10 -9 -10 -20z"/>
<path d="M1688 2443 c7 -3 16 -2 19 1 4 3 -2 6 -13 5 -11 0 -14 -3 -6 -6z"/>
<path d="M2215 2436 c-18 -13 -16 -15 33 -13 32 0 51 5 49 11 -6 17 -60 18
-82 2z"/>
<path d="M1720 2436 c0 -2 7 -6 15 -10 8 -3 15 -1 15 4 0 6 -7 10 -15 10 -8 0
-15 -2 -15 -4z"/>
<path d="M1000 2403 c8 -3 23 -12 33 -21 21 -19 23 -9 1 12 -8 9 -23 16 -32
15 -14 0 -14 -2 -2 -6z"/>
<path d="M880 2379 c-16 -30 -8 -31 13 -3 10 13 13 24 8 24 -6 0 -15 -9 -21
-21z"/>
<path d="M936 2385 c25 -19 31 -19 38 1 5 14 4 15 -8 5 -10 -8 -16 -9 -21 -1
-3 5 -11 10 -18 10 -6 0 -2 -7 9 -15z"/>
<path d="M1957 2349 c7 -7 15 -10 18 -7 3 3 -2 9 -12 12 -14 6 -15 5 -6 -5z"/>
<path d="M1990 2331 c0 -6 5 -11 11 -11 6 0 30 -13 54 -30 47 -33 73 -41 34
-12 -47 36 -99 63 -99 53z"/>
<path d="M2270 2300 c-13 -8 -12 -10 3 -10 9 0 17 5 17 10 0 12 -1 12 -20 0z"/>
<path d="M2310 2296 c0 -2 8 -10 18 -17 15 -13 16 -12 3 4 -13 16 -21 21 -21
13z"/>
<path d="M2260 2241 c0 -6 4 -13 10 -16 6 -3 7 1 4 9 -7 18 -14 21 -14 7z"/>
<path d="M1550 1949 c0 -5 5 -7 10 -4 6 4 10 -43 10 -134 0 -87 -4 -141 -10
-141 -5 0 -10 -3 -10 -7 0 -5 25 -8 55 -8 30 0 55 3 55 8 0 4 -7 7 -15 7 -13
0 -15 23 -15 145 l0 145 -40 0 c-22 0 -40 -5 -40 -11z"/>
<path d="M1853 1953 c15 -4 17 -19 17 -143 0 -124 -2 -139 -17 -143 -10 -2 8
-5 40 -8 33 -2 61 -1 64 4 2 4 -3 7 -11 7 -13 0 -16 15 -16 85 0 75 2 86 21
95 11 6 30 10 42 8 20 -3 22 -9 25 -91 3 -79 5 -88 27 -103 26 -17 66 -16 72
3 3 7 -3 9 -16 6 -20 -5 -21 -1 -21 74 0 54 -5 85 -15 100 -21 29 -68 38 -105
20 l-30 -15 0 54 0 54 -47 -1 c-27 -1 -40 -3 -30 -6z"/>
<path d="M1758 1913 c-3 -13 -14 -23 -23 -23 -9 0 -23 -7 -31 -15 -9 -8 -11
-15 -5 -15 7 0 11 -31 11 -85 0 -72 3 -88 20 -105 23 -23 72 -26 90 -6 10 13
7 15 -17 13 l-28 -2 -3 94 -3 93 26 -4 c14 -3 28 -1 31 3 3 5 -8 9 -25 9 -26
0 -30 4 -33 33 -3 28 -4 29 -10 10z"/>
<path d="M2570 1906 c0 -2 8 -10 18 -17 15 -13 16 -12 3 4 -13 16 -21 21 -21
13z"/>
<path d="M2400 1890 c0 -5 5 -10 11 -10 5 0 7 5 4 10 -3 6 -8 10 -11 10 -2 0
-4 -4 -4 -10z"/>
<path d="M1074 1866 c-69 -30 -87 -120 -36 -177 24 -27 38 -33 83 -37 45 -3
59 0 82 18 15 12 27 26 27 32 0 7 -11 2 -23 -11 -34 -31 -94 -32 -119 -2 -10
13 -18 38 -18 57 l0 34 80 0 c66 0 80 3 80 16 0 29 -21 56 -55 70 -42 17 -61
17 -101 0z m86 -25 c18 -34 12 -41 -40 -41 -54 0 -58 4 -34 38 19 27 60 29 74
3z"/>
<path d="M1321 1867 c-33 -17 -49 -43 -34 -58 20 -20 44 -3 37 26 -6 24 -4 25
38 25 48 0 68 -13 68 -44 0 -19 -6 -21 -53 -21 -71 0 -107 -23 -107 -69 0 -20
8 -40 19 -50 28 -26 95 -32 125 -13 21 14 26 14 36 2 13 -16 38 -19 64 -9 23
9 20 23 -4 17 -19 -5 -20 0 -20 73 -1 49 -6 86 -14 96 -27 36 -109 49 -155 25z
m109 -130 c0 -49 -13 -67 -50 -67 -33 0 -50 17 -50 51 0 37 24 59 66 59 33 0
34 -1 34 -43z"/>
<path d="M2416 1857 c3 -10 9 -15 12 -12 3 3 0 11 -7 18 -10 9 -11 8 -5 -6z"/>
<path d="M2451 1770 c0 -8 4 -24 9 -35 5 -13 9 -14 9 -5 0 8 -4 24 -9 35 -5
13 -9 14 -9 5z"/>
<path d="M2477 1675 c3 -22 6 -46 6 -52 0 -7 4 -13 8 -13 9 0 1 52 -12 85 -5
12 -6 5 -2 -20z"/>
<path d="M1541 1607 c-16 -16 -14 -43 5 -62 15 -15 19 -15 32 -2 9 10 12 24 8
40 -7 29 -29 40 -45 24z"/>
<path d="M2598 1582 c11 -57 73 -116 96 -92 8 10 8 11 -3 8 -17 -5 -81 62 -81
85 0 9 -4 18 -9 21 -4 3 -6 -7 -3 -22z"/>
<path d="M365 1553 c-16 -8 -40 -24 -52 -35 -24 -22 -49 -75 -40 -85 4 -3 41
-11 82 -18 l76 -12 49 63 c28 34 50 67 50 73 0 31 -115 41 -165 14z m98 -8 c1
-5 -6 -11 -15 -13 -11 -2 -18 3 -18 13 0 17 30 18 33 0z m-43 -11 c0 -9 -7
-14 -18 -12 -11 2 -26 -3 -35 -10 -11 -10 -17 -10 -22 -1 -8 12 14 31 26 23 4
-2 10 0 14 6 10 16 35 12 35 -6z m88 -6 c-6 -18 -28 -21 -28 -4 0 9 7 16 16
16 9 0 14 -5 12 -12z m-63 -29 c0 -19 -67 -19 -73 0 -3 10 1 12 17 8 11 -3 24
-1 27 4 8 14 29 5 29 -12z m-116 -22 c-9 -7 -14 -18 -12 -24 3 -7 -2 -13 -11
-13 -20 0 -20 0 0 39 12 25 19 30 28 21 8 -8 7 -14 -5 -23z m155 24 c7 -11
-19 -33 -28 -24 -4 4 -4 0 0 -10 4 -12 1 -17 -10 -17 -20 0 -20 6 2 35 18 26
28 30 36 16z m-111 -26 c8 -18 -11 -31 -25 -17 -11 11 -3 32 12 32 4 0 10 -7
13 -15z m43 -21 c-3 -8 -1 -14 4 -14 6 0 10 -4 10 -10 0 -17 -14 -11 -28 10
-7 12 -10 25 -7 31 9 14 27 -1 21 -17z m-66 -14 c0 -5 -4 -10 -10 -10 -5 0
-10 5 -10 10 0 6 5 10 10 10 6 0 10 -4 10 -10z m40 -10 c0 -5 -7 -7 -15 -4 -8
4 -12 10 -9 15 6 11 24 2 24 -11z"/>
<path d="M1016 1548 c-9 -12 -16 -28 -16 -36 0 -7 -20 -43 -45 -80 -25 -37
-45 -59 -45 -49 0 23 -17 22 -30 -2 -20 -39 -12 -81 24 -117 29 -29 41 -34 81
-34 25 0 54 4 64 10 17 8 16 3 -5 -48 -24 -59 -29 -88 -17 -118 5 -13 23 17
66 107 47 100 60 120 67 104 17 -43 49 -60 115 -60 51 0 70 5 95 23 l32 24 14
-21 c23 -32 76 -28 116 8 l32 29 27 -29 c43 -46 132 -38 191 18 l26 25 13 -23
c19 -37 40 -48 87 -49 66 0 130 37 159 93 22 44 6 46 -30 4 -62 -73 -126 -97
-160 -59 -28 31 -16 110 13 92 46 -29 120 5 146 66 19 46 18 58 -12 88 -33 32
-70 33 -115 3 -37 -25 -99 -119 -99 -152 -1 -43 -89 -115 -142 -115 -75 0 -57
134 30 223 49 50 67 50 46 -2 -18 -46 -15 -96 6 -96 8 0 23 21 34 47 16 39 17
52 8 73 -15 32 -53 50 -89 40 -45 -11 -110 -87 -128 -149 -22 -75 -69 -135
-107 -136 -30 0 -21 42 27 141 49 102 51 107 32 133 -11 15 -17 10 -55 -56
-23 -40 -47 -89 -53 -108 -15 -44 -55 -89 -96 -106 -46 -20 -50 -18 -21 14 31
33 62 92 77 149 9 34 9 49 -3 76 -17 42 -45 50 -91 27 -34 -17 -35 -17 -35 2
0 39 -26 10 -87 -97 -64 -111 -93 -149 -128 -167 -20 -11 -20 -11 0 12 18 20
20 34 17 140 -1 73 2 121 8 125 5 3 10 13 10 21 0 22 -37 17 -54 -8z m14 -90
c0 -68 -5 -74 -13 -15 -5 35 0 77 9 77 2 0 4 -28 4 -62z m306 38 c15 -40 -62
-202 -108 -227 -26 -14 -48 5 -48 40 0 38 46 127 87 167 36 36 60 43 69 20z
m670 -2 c-3 -9 -6 -20 -6 -25 0 -21 -73 -89 -96 -89 -13 0 -24 4 -24 8 0 15
57 89 82 106 29 21 52 21 44 0z m-503 -29 c-3 -9 -8 -14 -10 -11 -3 3 -2 9 2
15 9 16 15 13 8 -4z m382 -14 c3 -5 2 -12 -3 -15 -5 -3 -9 1 -9 9 0 17 3 19
12 6z m-885 -84 c0 -59 -4 -89 -15 -103 -15 -19 -16 -18 -40 9 -14 15 -25 34
-25 42 0 12 70 133 78 135 1 0 2 -37 2 -83z m205 73 c3 -5 1 -10 -4 -10 -6 0
-11 5 -11 10 0 6 2 10 4 10 3 0 8 -4 11 -10z m439 -5 c-4 -8 -8 -15 -10 -15
-2 0 -4 7 -4 15 0 8 4 15 10 15 5 0 7 -7 4 -15z m-287 -17 c-3 -8 -6 -5 -6 6
-1 11 2 17 5 13 3 -3 4 -12 1 -19z m653 2 c0 -5 -4 -10 -10 -10 -5 0 -10 5
-10 10 0 6 5 10 10 10 6 0 10 -4 10 -10z m-140 -5 c0 -18 -33 -78 -37 -67 -5
14 18 72 29 72 5 0 8 -2 8 -5z m-680 -15 c0 -5 -5 -10 -11 -10 -5 0 -7 5 -4
10 3 6 8 10 11 10 2 0 4 -4 4 -10z m156 -27 c-10 -10 -19 5 -10 18 6 11 8 11
12 0 2 -7 1 -15 -2 -18z m-181 -25 c-4 -13 -13 -28 -21 -34 -8 -6 -14 -17 -14
-24 0 -7 -3 -10 -7 -7 -8 8 28 87 40 87 5 0 5 -10 2 -22z m440 12 c3 -5 1 -10
-4 -10 -6 0 -11 5 -11 10 0 6 2 10 4 10 3 0 8 -4 11 -10z m-565 -19 c0 -6 -4
-13 -10 -16 -5 -3 -10 1 -10 9 0 9 5 16 10 16 6 0 10 -4 10 -9z m290 0 c0 -6
-4 -13 -10 -16 -5 -3 -10 1 -10 9 0 9 5 16 10 16 6 0 10 -4 10 -9z m260 -16
c0 -8 -4 -15 -10 -15 -5 0 -7 7 -4 15 4 8 8 15 10 15 2 0 4 -7 4 -15z m249
-23 c-1 -15 -2 -15 -6 1 -2 9 -9 14 -15 11 -7 -4 -8 -2 -4 5 10 15 26 4 25
-17z m-409 8 c0 -5 -5 -10 -11 -10 -5 0 -7 5 -4 10 3 6 8 10 11 10 2 0 4 -4 4
-10z m-408 -32 c-8 -8 -9 -4 -5 13 4 13 8 18 11 10 2 -7 -1 -18 -6 -23z m73
-34 c-14 -37 -14 -38 -11 -7 4 33 15 57 22 50 2 -2 -3 -21 -11 -43z"/>
<path d="M2491 1554 c0 -11 3 -14 6 -6 3 7 2 16 -1 19 -3 4 -6 -2 -5 -13z"/>
<path d="M501 1464 c-28 -37 -51 -71 -51 -76 0 -5 7 -24 15 -44 13 -31 16 -33
35 -22 11 7 20 18 20 24 0 6 7 18 17 25 15 13 15 12 4 -8 -8 -16 -8 -23 -1
-23 6 0 8 -4 5 -10 -3 -5 -3 -15 1 -21 4 -7 9 -30 11 -53 2 -23 6 -48 10 -56
3 -8 7 -22 9 -30 2 -8 8 -26 15 -40 6 -14 16 -35 20 -47 25 -64 43 -96 107
-182 13 -17 19 -31 13 -31 -12 0 -108 107 -126 141 -23 42 -75 207 -82 255 -3
24 -10 44 -15 44 -5 0 -7 -8 -4 -17 3 -10 10 -39 16 -66 5 -26 20 -75 32 -110
12 -34 21 -73 20 -87 -1 -18 1 -21 7 -11 7 11 10 9 15 -7 4 -11 31 -57 61
-102 30 -45 55 -84 55 -88 0 -3 -18 11 -40 33 -21 21 -37 42 -34 47 3 4 1 8
-4 8 -5 0 -19 21 -30 48 -12 26 -21 41 -22 33 0 -14 51 -112 74 -143 15 -20
96 -59 108 -52 11 7 0 24 -16 24 -13 0 -46 31 -46 43 0 15 21 5 55 -28 21 -19
47 -37 59 -41 17 -6 13 2 -17 35 -94 105 -174 258 -208 398 -12 49 -23 95 -26
103 -3 8 -4 57 -3 108 0 50 -1 92 -3 92 -3 0 -28 -30 -56 -66z m39 -4 c0 -5
-7 -10 -16 -10 -8 0 -12 5 -9 10 3 6 10 10 16 10 5 0 9 -4 9 -10z m-25 -40
c-3 -5 -1 -11 5 -15 15 -9 12 -25 -4 -25 -13 0 -28 44 -18 54 8 8 23 -4 17
-14z m22 -2 c-3 -8 -6 -5 -6 6 -1 11 2 17 5 13 3 -3 4 -12 1 -19z m-47 -29 c0
-5 -7 -9 -15 -9 -9 0 -12 6 -9 15 6 15 24 11 24 -6z m12 -34 c0 -5 -5 -11 -11
-13 -6 -2 -11 4 -11 13 0 9 5 15 11 13 6 -2 11 -8 11 -13z"/>
<path d="M2501 1494 c0 -11 3 -14 6 -6 3 7 2 16 -1 19 -3 4 -6 -2 -5 -13z"/>
<path d="M270 1381 c0 -54 39 -110 99 -141 21 -11 27 -9 59 23 l34 35 -17 45
c-17 44 -17 45 -73 51 -31 4 -66 9 -79 12 -20 6 -23 3 -23 -25z m38 -2 c-2 -6
-8 -10 -13 -10 -5 0 -11 4 -13 10 -2 6 4 11 13 11 9 0 15 -5 13 -11z m50 -16
c7 -16 8 -31 3 -36 -13 -13 -34 2 -27 19 3 7 1 16 -5 19 -10 7 -3 25 9 25 4 0
13 -12 20 -27z m28 2 c-3 -8 -1 -15 3 -15 5 0 11 6 14 13 7 20 17 3 10 -21 -6
-26 -28 -29 -37 -4 -3 9 -9 23 -12 30 -3 7 1 12 11 12 11 0 15 -5 11 -15z
m-67 -32 c5 -9 21 -17 35 -18 25 0 38 -20 13 -20 -6 0 -18 -4 -25 -8 -8 -5
-15 -2 -19 10 -3 10 -12 22 -20 26 -7 4 -13 12 -13 17 0 16 18 11 29 -7z m121
-14 c0 -5 -4 -9 -10 -9 -5 0 -10 7 -10 16 0 8 5 12 10 9 6 -3 10 -10 10 -16z
m-20 -22 c0 -7 -6 -22 -14 -33 -14 -18 -15 -17 -12 11 4 37 4 35 16 35 6 0 10
-6 10 -13z m-40 -27 c0 -5 -7 -10 -15 -10 -8 0 -15 5 -15 10 0 6 7 10 15 10 8
0 15 -4 15 -10z"/>
<path d="M2559 1366 c26 -28 31 -31 31 -17 0 5 -12 17 -27 26 l-28 18 24 -27z"/>
<path d="M250 1311 c0 -7 20 -33 44 -57 42 -43 66 -55 66 -34 0 6 -8 10 -18
10 -19 0 -61 39 -80 75 -7 12 -12 14 -12 6z"/>
<path d="M470 1245 c-8 -9 -8 -15 -2 -15 12 0 26 19 19 26 -2 2 -10 -2 -17
-11z"/>
<path d="M2560 1250 c0 -5 5 -10 11 -10 5 0 7 5 4 10 -3 6 -8 10 -11 10 -2 0
-4 -4 -4 -10z"/>
<path d="M387 1211 c-10 -4 -18 -10 -17 -14 0 -4 -8 -37 -20 -73 -11 -36 -20
-90 -20 -118 0 -93 49 -220 112 -292 43 -49 147 -97 136 -63 -2 6 -21 17 -42
24 -52 18 -85 53 -122 127 -51 102 -55 118 -55 198 0 73 26 172 54 208 10 13
2 14 -26 3z"/>
<path d="M440 1195 c-7 -9 -8 -15 -2 -15 5 0 12 7 16 15 3 8 4 15 2 15 -2 0
-9 -7 -16 -15z"/>
<path d="M2447 1150 c-8 -22 -12 -40 -8 -40 8 0 33 71 27 77 -1 2 -10 -15 -19
-37z"/>
<path d="M2723 1128 c-40 -41 -41 -45 -34 -85 l8 -43 -37 -10 c-26 -7 -40 -17
-44 -33 -3 -13 -19 -28 -38 -36 l-33 -14 28 -4 c33 -5 67 20 67 49 0 13 7 18
25 18 28 0 65 32 65 55 0 9 11 20 24 25 13 5 27 19 31 30 8 25 -2 90 -13 90
-4 0 -26 -19 -49 -42z m47 -37 c-13 -26 -27 -34 -35 -21 -8 14 13 40 32 40 10
0 11 -4 3 -19z m-47 -21 c3 -10 -1 -24 -9 -31 -11 -9 -14 -6 -14 20 0 34 15
42 23 11z"/>
<path d="M412 1134 c-1 -13 0 -24 2 -24 7 0 14 40 7 44 -4 3 -8 -6 -9 -20z"/>
<path d="M501 1100 c-6 -28 -11 -74 -11 -101 0 -54 40 -187 67 -223 18 -24 18
-26 -19 67 -19 51 -30 107 -19 107 3 -1 17 -23 30 -50 13 -27 37 -62 54 -77
30 -28 30 -27 -5 22 -70 99 -83 132 -83 223 0 45 -1 82 -2 82 -1 0 -6 -23 -12
-50z"/>
<path d="M2494 1089 c-3 -6 -2 -15 3 -20 5 -5 9 -1 9 11 0 23 -2 24 -12 9z"/>
<path d="M1643 1073 c-7 -3 -13 -13 -13 -23 0 -19 17 -30 38 -23 6 3 12 13 12
23 0 19 -17 30 -37 23z"/>
<path d="M831 1051 c-43 -23 -60 -54 -61 -111 0 -76 49 -120 132 -120 43 0 88
21 88 42 0 6 -8 4 -18 -5 -25 -23 -71 -31 -104 -18 -52 20 -64 155 -17 197 24
22 89 25 113 5 20 -17 21 -45 2 -61 -13 -10 -15 -7 -13 17 2 24 -2 28 -23 28
-28 0 -39 -27 -20 -50 15 -18 52 -19 68 -3 20 20 14 65 -10 82 -30 21 -95 20
-137 -3z"/>
<path d="M1541 1039 c0 -9 -15 -22 -33 -30 -17 -7 -26 -15 -20 -17 8 -2 12
-28 12 -71 0 -53 4 -72 18 -84 23 -21 56 -22 73 -1 11 13 9 14 -14 9 l-27 -7
0 75 c0 75 0 76 28 80 l27 4 -27 2 c-21 1 -28 7 -31 29 -2 15 -5 20 -6 11z"/>
<path d="M2505 1020 c-3 -6 1 -7 10 -4 11 5 14 2 9 -12 -6 -15 -4 -16 6 -7 7
6 9 16 6 22 -9 14 -23 14 -31 1z"/>
<path d="M1055 998 c-24 -14 -35 -29 -29 -40 10 -16 34 -7 34 12 0 17 7 20 39
20 36 0 51 -12 51 -40 0 -4 -25 -10 -56 -12 -59 -5 -84 -23 -84 -59 0 -41 63
-70 113 -51 21 8 36 8 49 1 20 -11 58 -4 58 11 0 4 -9 6 -20 3 -19 -5 -20 0
-20 66 l0 72 -35 15 c-41 17 -73 18 -100 2z m95 -101 c0 -40 -15 -57 -51 -57
-35 0 -47 31 -25 65 11 17 26 25 46 25 27 0 30 -3 30 -33z"/>
<path d="M1355 1002 c-11 -2 -26 -9 -32 -14 -9 -7 -13 -7 -13 1 0 6 -16 11
-37 10 -21 -1 -31 -3 -23 -5 20 -6 22 -154 3 -154 -7 0 -13 -3 -13 -7 0 -5 20
-8 45 -8 25 0 45 3 45 8 0 4 -4 7 -10 7 -6 0 -10 28 -10 65 0 60 2 66 24 77
45 20 56 6 56 -72 0 -65 2 -71 24 -82 26 -11 56 -5 56 11 0 6 -7 8 -15 5 -12
-5 -15 5 -15 53 0 82 -28 117 -85 105z"/>
<path d="M1835 1002 c-11 -2 -26 -9 -32 -14 -9 -7 -13 -7 -13 1 0 6 -16 11
-37 10 -21 -1 -30 -3 -20 -6 14 -4 17 -16 17 -79 0 -43 -4 -74 -10 -74 -5 0
-10 -3 -10 -7 0 -5 20 -8 45 -9 25 0 45 3 45 8 0 4 -7 8 -15 8 -12 0 -15 14
-15 63 0 57 2 65 24 77 43 23 56 8 56 -64 0 -46 5 -69 16 -81 18 -18 55 -17
62 3 2 7 -2 10 -12 6 -14 -5 -16 4 -16 57 0 35 -4 69 -8 76 -10 16 -53 30 -77
25z"/>
<path d="M2010 997 c-33 -16 -39 -47 -10 -47 17 0 20 4 15 20 -6 18 -2 20 34
20 30 0 43 -5 51 -19 15 -29 13 -31 -29 -31 -79 0 -119 -38 -92 -89 14 -25 73
-38 107 -22 18 8 31 8 49 -1 19 -9 28 -9 37 0 9 9 8 12 -5 12 -14 0 -17 10
-17 63 0 71 -5 82 -43 96 -37 14 -66 14 -97 -2z m95 -97 c1 -41 -13 -60 -44
-60 -28 0 -41 15 -41 45 0 23 31 46 59 43 20 -2 26 -9 26 -28z"/>
<path d="M1618 993 c15 -6 17 -153 2 -153 -5 0 -10 -3 -10 -7 0 -5 20 -8 45
-8 25 0 45 3 45 8 0 4 -4 7 -10 7 -6 0 -10 33 -10 80 l0 80 -37 -1 c-21 0 -32
-3 -25 -6z"/>
<path d="M481 774 c0 -11 3 -14 6 -6 3 7 2 16 -1 19 -3 4 -6 -2 -5 -13z"/>
<path d="M520 720 c0 -5 5 -10 11 -10 5 0 7 5 4 10 -3 6 -8 10 -11 10 -2 0 -4
-4 -4 -10z"/>
<path d="M2004 594 c-18 -14 -18 -15 4 -4 12 6 22 13 22 15 0 8 -5 6 -26 -11z"/>
<path d="M1930 561 c-8 -5 -27 -14 -42 -22 -16 -7 -26 -14 -24 -16 4 -5 96 35
96 42 0 7 -12 5 -30 -4z"/>
<path d="M2189 513 c-3 -65 -5 -79 -14 -93 -12 -18 -100 -90 -111 -90 -4 0
-19 -10 -32 -22 -14 -13 -22 -18 -19 -12 4 7 -1 18 -11 25 -14 11 -15 11 -5
-1 19 -21 -3 -40 -48 -40 -29 0 -39 4 -39 16 0 8 4 13 9 9 5 -3 12 -1 16 5 9
14 -18 12 -34 -2 -11 -11 -13 -10 -9 2 6 15 -3 18 -54 21 -20 0 -48 36 -48 60
0 9 -7 22 -15 29 -9 8 -15 9 -15 2 0 -6 4 -13 9 -16 5 -3 11 -16 14 -28 2 -13
7 -30 11 -39 5 -12 -1 -19 -21 -27 -99 -38 -307 -35 -450 6 -35 11 -43 17 -43
37 0 13 -5 27 -10 30 -6 3 -8 18 -4 33 4 22 3 24 -5 10 -11 -17 -10 -52 2 -64
12 -12 8 -24 -9 -24 -29 0 1 -24 53 -43 143 -51 396 -49 496 3 l39 21 40 -37
c35 -31 45 -35 75 -31 43 7 164 79 215 128 35 33 38 40 38 92 0 57 -19 92 -21
40z"/>
<path d="M1293 473 c9 -2 23 -2 30 0 6 3 -1 5 -18 5 -16 0 -22 -2 -12 -5z"/>
<path d="M1348 469 c-7 -5 -11 -9 -8 -9 141 -9 243 -11 237 -5 -4 5 -33 8 -65
6 -31 -1 -78 2 -104 7 -25 5 -52 5 -60 1z"/>
<path d="M1245 460 c-3 -5 -1 -10 4 -10 6 0 11 5 11 10 0 6 -2 10 -4 10 -3 0
-8 -4 -11 -10z"/>
<path d="M1370 410 c-12 -7 -12 -11 -2 -20 6 -5 10 -7 7 -4 -3 4 3 13 13 20
19 15 5 19 -18 4z"/>
<path d="M1365 347 c-13 -10 -15 -16 -6 -21 7 -5 15 -5 18 -2 4 3 0 6 -7 6 -9
0 -7 5 6 15 10 8 16 15 13 15 -3 0 -13 -6 -24 -13z"/>
</g>
</svg>
