<?xml version="1.0" standalone="no"?>
<!DOCTYPE svg PUBLIC "-//W3C//DTD SVG 20010904//EN"
 "http://www.w3.org/TR/2001/REC-SVG-20010904/DTD/svg10.dtd">
<svg version="1.0" xmlns="http://www.w3.org/2000/svg"
 width="300.000000pt" height="138.000000pt" viewBox="0 0 300.000000 138.000000"
 preserveAspectRatio="xMidYMid meet">
<metadata>
Created by potrace 1.10, written by Peter Selinger 2001-2011
</metadata>
<g transform="translate(0.000000,138.000000) scale(0.100000,-0.100000)"
fill="#000000" stroke="none">
<path d="M1474 1318 c-3 -5 2 -8 10 -8 14 0 16 -20 16 -146 0 -128 -2 -148
-17 -160 -16 -12 -9 -13 50 -14 38 0 67 4 67 10 0 6 -7 10 -15 10 -13 0 -15
15 -13 92 3 90 4 93 30 106 21 10 33 10 48 2 18 -9 20 -21 20 -100 0 -104 11
-123 68 -118 19 2 37 9 40 16 3 11 0 12 -16 3 -10 -6 -22 -7 -26 -4 -3 3 -6
46 -6 95 0 75 -3 91 -20 108 -22 22 -88 27 -121 10 -18 -10 -19 -7 -19 44 l0
54 -46 4 c-25 2 -48 0 -50 -4z"/>
<path d="M1163 1313 c15 -4 17 -20 17 -154 0 -126 -2 -149 -15 -149 -8 0 -15
-4 -15 -10 0 -6 27 -10 60 -10 33 0 60 4 60 10 0 6 -7 10 -15 10 -14 0 -16 20
-13 155 l3 155 -50 -1 c-27 -1 -42 -3 -32 -6z"/>
<path d="M90 1290 c-40 -40 -15 -110 39 -110 52 0 81 46 49 78 -30 30 -82 -3
-60 -38 18 -30 -5 -34 -24 -5 -15 23 -15 27 -1 49 13 19 27 25 67 28 29 1 54
1 56 -1 2 -2 4 -67 4 -143 0 -116 -2 -138 -15 -138 -8 0 -15 -4 -15 -10 0 -6
29 -10 66 -10 41 0 63 4 59 10 -3 6 -12 10 -18 10 -8 0 -12 25 -12 80 l0 80
73 0 72 0 0 -80 c0 -64 -3 -80 -15 -80 -8 0 -15 -4 -15 -10 0 -6 28 -10 65
-10 37 0 65 4 65 10 0 6 -7 10 -15 10 -13 0 -15 23 -15 146 0 87 4 143 9 139
5 -3 12 -1 16 5 4 6 -18 10 -59 10 -42 0 -66 -4 -66 -11 0 -6 7 -9 15 -5 12 4
15 -5 15 -49 l0 -55 -72 0 -73 0 1 52 c1 29 6 53 12 53 6 0 14 3 18 8 4 4 -41
7 -99 7 -94 0 -109 -2 -127 -20z m167 -202 c-2 -35 -3 -7 -3 62 0 69 1 97 3
63 2 -35 2 -91 0 -125z m208 92 c3 -5 1 -10 -4 -10 -6 0 -11 5 -11 10 0 6 2
10 4 10 3 0 8 -4 11 -10z"/>
<path d="M1377 1270 c-3 -11 -13 -20 -22 -20 -22 0 -54 -32 -37 -38 8 -2 12
-30 12 -91 0 -107 13 -131 69 -131 22 0 44 6 51 15 11 13 8 14 -18 9 l-31 -6
-3 101 -3 101 33 0 c17 0 32 5 32 10 0 6 -13 10 -30 10 -27 0 -30 3 -30 30 0
34 -15 40 -23 10z"/>
<path d="M917 1230 c-38 -12 -57 -29 -57 -52 0 -24 26 -34 45 -18 12 10 13 16
3 27 -16 20 5 33 54 33 39 0 68 -26 68 -62 0 -16 -6 -17 -39 -12 -42 7 -102
-9 -126 -33 -8 -8 -15 -30 -15 -48 0 -42 29 -72 74 -77 42 -5 96 9 96 24 0 6
8 3 19 -6 23 -21 82 -18 89 4 4 12 3 13 -10 3 -23 -20 -28 -6 -28 83 0 96 -13
120 -75 134 -47 11 -61 11 -98 0z m140 -172 c-2 -18 -4 -6 -4 27 0 33 2 48 4
33 2 -15 2 -42 0 -60z m-29 49 c13 -69 -32 -122 -83 -99 -21 10 -25 19 -25 51
0 51 21 73 69 69 25 -2 37 -8 39 -21z"/>
<path d="M618 1214 c-78 -42 -75 -169 4 -210 41 -21 118 -21 151 0 27 18 43
46 27 46 -6 0 -10 -4 -10 -10 0 -14 -55 -40 -85 -40 -40 0 -75 41 -75 90 l0
40 91 0 c89 0 90 0 84 23 -4 12 -20 34 -36 50 -24 22 -38 27 -77 27 -26 -1
-59 -7 -74 -16z m106 -16 c30 -42 21 -54 -40 -54 -54 0 -55 1 -49 26 12 50 63
66 89 28z m-127 -100 c-2 -13 -4 -5 -4 17 -1 22 1 32 4 23 2 -10 2 -28 0 -40z"/>
<path d="M1760 1220 c0 -5 7 -10 15 -10 10 0 34 -39 66 -107 48 -103 49 -108
36 -142 -16 -40 -37 -53 -37 -23 0 29 -30 36 -53 14 -27 -27 -8 -62 33 -62 39
0 54 22 125 184 33 74 66 136 73 136 6 0 12 5 12 10 0 6 -13 10 -30 10 -28 0
-42 -14 -21 -22 5 -1 -5 -34 -22 -71 l-32 -69 -33 68 c-21 42 -30 70 -23 72
31 10 4 22 -49 22 -33 0 -60 -4 -60 -10z"/>
<path d="M745 937 c-109 -43 -205 -149 -205 -227 0 -41 32 -81 103 -128 40
-26 72 -54 72 -62 0 -8 -12 -20 -26 -27 -34 -17 -82 -3 -145 42 -85 61 -144
39 -65 -24 54 -43 102 -61 160 -61 42 0 56 5 86 31 25 22 35 39 35 60 0 25
-10 35 -70 74 -81 52 -99 79 -80 124 25 61 147 161 197 161 31 0 29 -17 -7
-74 -38 -59 -46 -95 -27 -120 12 -17 17 -13 55 51 46 75 50 99 27 143 -25 48
-55 58 -110 37z m-21 -51 c-10 -8 -21 -12 -24 -10 -5 6 21 24 34 24 6 0 1 -6
-10 -14z m117 -63 c-8 -15 -10 -15 -11 -2 0 17 10 32 18 25 2 -3 -1 -13 -7
-23z m-224 -27 c-7 -15 -14 -20 -19 -13 -5 8 15 34 29 37 0 0 -4 -11 -10 -24z
m213 0 c0 -3 -4 -8 -10 -11 -5 -3 -10 -1 -10 4 0 6 5 11 10 11 6 0 10 -2 10
-4z m-240 -45 c0 -6 -4 -13 -10 -16 -5 -3 -10 1 -10 9 0 9 5 16 10 16 6 0 10
-4 10 -9z m-6 -57 c9 -24 2 -26 -12 -4 -7 11 -8 20 -3 20 5 0 12 -7 15 -16z"/>
<path d="M1252 838 c-16 -16 -15 -38 4 -59 21 -24 44 -13 44 20 0 25 -15 51
-30 51 -3 0 -11 -5 -18 -12z"/>
<path d="M886 688 c-64 -109 -142 -267 -158 -320 -10 -33 -4 -97 8 -85 3 2 31
59 63 126 58 118 59 120 71 92 6 -16 23 -35 37 -42 38 -21 125 -15 168 10 35
21 35 21 55 1 33 -33 77 -24 133 28 20 19 27 22 27 10 0 -21 31 -47 66 -54 43
-8 107 12 142 44 l29 27 16 -27 c30 -52 98 -60 175 -20 37 19 82 73 82 98 0
24 -14 15 -43 -25 -35 -51 -109 -88 -142 -73 -29 13 -39 43 -30 88 6 33 7 34
28 19 31 -22 61 -19 97 11 62 52 75 110 35 149 -31 31 -72 32 -116 2 -37 -25
-99 -119 -99 -151 0 -51 -113 -136 -160 -121 -34 11 -43 50 -26 110 22 74 102
172 123 151 3 -2 -4 -27 -13 -54 -15 -42 -16 -53 -5 -66 7 -9 17 -16 21 -16 8
0 50 91 50 108 0 22 -54 62 -83 62 -48 0 -131 -91 -153 -167 -12 -40 -29 -70
-55 -96 -77 -77 -89 -20 -24 108 45 88 52 118 36 143 -11 19 -38 -19 -98 -142
-48 -100 -79 -132 -143 -151 -23 -7 -23 -7 6 23 58 57 96 171 80 235 -11 45
-67 55 -108 19 -16 -14 -18 -13 -18 6 0 46 -22 28 -74 -60z m157 37 c10 -24
-18 -110 -52 -164 -60 -93 -101 -99 -101 -16 0 86 131 240 153 180z m687 1 c0
-23 -63 -109 -86 -117 -39 -14 -49 5 -25 45 39 63 111 110 111 72z m-780 -10
c0 -2 -7 -7 -16 -10 -8 -3 -12 -2 -9 4 6 10 25 14 25 6z m535 -46 c-4 -12 -9
-19 -12 -17 -3 3 -2 15 2 27 4 12 9 19 12 17 3 -3 2 -15 -2 -27z m129 22 c-6
-4 -14 -17 -18 -29 -4 -13 -12 -23 -17 -23 -5 0 -3 14 6 30 9 17 21 30 28 30
8 0 9 -2 1 -8z m-413 -35 c-10 -9 -11 -8 -5 6 3 10 9 15 12 12 3 -3 0 -11 -7
-18z m-16 -27 c3 -5 1 -10 -4 -10 -6 0 -11 5 -11 10 0 6 2 10 4 10 3 0 8 -4
11 -10z m136 -41 c-9 -23 -10 -22 -10 11 -1 23 2 31 9 24 7 -7 7 -19 1 -35z
m241 -11 c-6 -6 -8 -1 -7 14 4 39 8 44 12 19 3 -13 0 -28 -5 -33z m-692 -14
c0 -8 -4 -13 -10 -9 -5 3 -18 -11 -29 -32 -11 -21 -20 -35 -21 -30 0 4 10 27
23 51 21 42 37 51 37 20z m300 22 c0 -3 -4 -8 -10 -11 -5 -3 -10 -1 -10 4 0 6
5 11 10 11 6 0 10 -2 10 -4z m-140 -26 c0 -5 -5 -10 -11 -10 -5 0 -7 5 -4 10
3 6 8 10 11 10 2 0 4 -4 4 -10z m111 -36 c-5 -16 -10 -21 -10 -12 -1 18 10 51
15 45 2 -1 -1 -16 -5 -33z m169 16 c0 -5 -4 -10 -10 -10 -5 0 -10 5 -10 10 0
6 5 10 10 10 6 0 10 -4 10 -10z m248 -15 c-3 -3 -9 2 -12 12 -6 14 -5 15 5 6
7 -7 10 -15 7 -18z"/>
<path d="M2134 385 c-10 -26 4 -45 35 -45 16 0 31 6 35 15 10 26 -5 45 -35 45
-17 0 -32 -6 -35 -15z"/>
<path d="M1060 367 c-55 -29 -80 -74 -80 -147 0 -69 25 -112 81 -141 59 -29
157 -24 194 11 35 33 32 47 -4 17 -66 -55 -164 -38 -188 33 -15 45 -15 125 0
170 30 89 197 89 197 0 0 -33 -25 -59 -41 -43 -8 8 -7 13 0 17 26 17 6 56 -29
56 -20 0 -40 -33 -34 -54 9 -28 22 -36 60 -36 64 0 84 62 35 111 -26 25 -37
29 -89 29 -42 0 -71 -6 -102 -23z m-43 -174 c-2 -21 -4 -6 -4 32 0 39 2 55 4
38 2 -18 2 -50 0 -70z"/>
<path d="M2008 348 c-2 -15 -11 -24 -26 -26 -12 -2 -20 -8 -17 -13 4 -5 -1 -9
-9 -9 -9 0 -16 -4 -16 -10 0 -5 6 -9 13 -7 9 1 13 -26 17 -101 4 -76 9 -105
20 -112 21 -14 74 -12 88 2 17 17 15 33 -3 18 -8 -7 -22 -10 -30 -6 -12 4 -15
25 -15 105 l0 101 30 -6 c19 -4 30 -2 30 5 0 6 -13 11 -30 11 -28 0 -30 3 -30
35 0 39 -17 48 -22 13z"/>
<path d="M1353 291 c-35 -22 -41 -42 -20 -60 21 -17 56 11 39 31 -17 21 -5 28
49 28 50 0 69 -15 69 -57 0 -16 -6 -18 -35 -15 -84 10 -145 -23 -145 -77 0
-47 29 -73 88 -79 41 -3 57 -1 72 13 18 16 20 16 35 1 21 -20 69 -21 86 0 11
13 9 14 -14 9 l-27 -7 0 85 c0 76 -3 89 -23 113 -33 38 -125 46 -174 15z m164
-148 c-2 -16 -4 -5 -4 22 0 28 2 40 4 28 2 -13 2 -35 0 -50z m-27 19 c0 -49
-23 -82 -59 -82 -37 0 -51 17 -51 60 0 47 15 60 67 60 l43 0 0 -38z"/>
<path d="M1738 294 c-16 -8 -28 -10 -28 -4 0 5 -22 10 -51 10 -31 0 -48 -4
-44 -10 4 -6 10 -8 15 -5 5 3 10 -42 12 -100 3 -98 2 -105 -16 -105 -11 0 -17
-3 -13 -6 8 -8 116 -8 124 0 4 3 -1 6 -11 6 -15 0 -16 11 -14 92 3 89 4 93 30
108 49 27 62 7 68 -99 4 -77 8 -95 24 -107 21 -15 45 -18 70 -8 23 9 20 23 -4
17 -19 -5 -20 0 -20 69 0 98 -13 134 -52 147 -40 14 -57 13 -90 -5z"/>
<path d="M2383 291 c-23 -15 -31 -16 -26 -6 4 12 -5 15 -47 15 -32 0 -49 -4
-45 -10 4 -6 11 -8 16 -5 5 4 9 -37 9 -99 0 -92 -2 -106 -17 -106 -9 0 -14 -3
-10 -6 8 -8 116 -8 124 0 4 3 -1 6 -11 6 -15 0 -16 11 -14 92 3 89 4 93 30
108 49 27 62 7 68 -99 4 -77 8 -95 24 -107 21 -15 45 -18 70 -8 23 9 20 27 -3
19 -18 -5 -19 1 -22 84 -3 75 -8 94 -25 111 -30 30 -82 35 -121 11z"/>
<path d="M2643 291 c-35 -22 -41 -42 -20 -60 21 -17 56 11 39 31 -17 21 -5 28
49 28 51 0 69 -15 69 -59 0 -17 -5 -19 -34 -14 -48 8 -103 -4 -127 -28 -25
-25 -25 -80 1 -104 29 -26 115 -33 140 -10 18 16 20 16 35 1 21 -20 69 -21 86
0 11 13 9 14 -14 9 l-27 -7 0 85 c0 76 -3 89 -23 113 -33 38 -125 46 -174 15z
m164 -148 c-2 -16 -4 -5 -4 22 0 28 2 40 4 28 2 -13 2 -35 0 -50z m-27 19 c0
-49 -23 -82 -59 -82 -37 0 -51 17 -51 60 0 47 15 60 67 60 l43 0 0 -38z"/>
<path d="M2110 290 c0 -5 6 -9 13 -7 9 1 13 -25 15 -100 2 -87 0 -103 -13
-103 -8 0 -15 -3 -15 -7 0 -5 27 -8 60 -8 33 0 60 3 60 8 0 4 -7 7 -15 7 -12
0 -15 19 -15 110 l0 110 -45 0 c-25 0 -45 -4 -45 -10z"/>
</g>
</svg>
